<?xml version="1.0" encoding="utf-8"?>
<!-- Generator: Adobe Illustrator 16.2.0, SVG Export Plug-In . SVG Version: 6.00 Build 0)  -->
<!DOCTYPE svg PUBLIC "-//W3C//DTD SVG 1.1//EN" "http://www.w3.org/Graphics/SVG/1.1/DTD/svg11.dtd">
<svg version="1.1" id="Layer_1" xmlns="http://www.w3.org/2000/svg" xmlns:xlink="http://www.w3.org/1999/xlink" x="0px" y="0px"
	 width="155px" height="37.026px" viewBox="0 0 155 37.026" enable-background="new 0 0 155 37.026" xml:space="preserve">
<g>
	<path fill="#CC0000" d="M30.251,25.162V9.181c-3.514,0.302-7.443,0.566-7.443,0.566s-0.982,0.491-0.982,1.474
		c0,0.151,0.037,0.378,0.075,0.491c0,0,1.738,0.265,3.022,0.492v12.958L23.3,25.616c0,0-1.058,0.491-1.058,1.474
		c0,0.151,0.038,0.377,0.114,0.566c0,0,3.626-0.151,5.176-0.151c1.473,0,4.571,0.151,4.571,0.151c0.869-1.058,0.907-2.04,0.907-2.04
		S31.348,25.427,30.251,25.162z"/>
	<path fill="#CC0000" d="M27.116,6.31c1.775,0,3.211-1.436,3.211-3.211C30.327,1.436,29.08,0,27.191,0
		c-1.738,0-3.173,1.398-3.173,3.098S25.189,6.31,27.116,6.31z"/>
	<path fill="#CC0000" d="M46.081,17.984l4.874-5.743l2.002-0.718c0.87-1.058,0.907-1.965,0.907-1.965s-2.569,0.038-4.193,0.038
		c-1.625,0-3.552-0.038-3.552-0.038s-1.058,0.416-1.058,1.398c0,0.151,0.038,0.378,0.113,0.567l1.587,0.718l-2.645,3.589
		l-2.758-3.741l1.247-0.566c0.87-1.058,0.983-1.965,0.983-1.965s-3.438,0.038-5.063,0.038s-4.609-0.038-4.609-0.038
		s-1.058,0.416-1.058,1.398c0,0.151,0.037,0.378,0.113,0.567l2.531,0.718l5.44,6.725l-5.1,6.196l-2.002,0.454
		c0,0-1.058,0.491-1.058,1.474c0,0.151,0.038,0.377,0.113,0.566c0,0,3.174-0.151,4.723-0.151c1.285,0,3.513,0.151,3.513,0.151
		c0.869-1.058,0.944-2.04,0.944-2.04s-1.209-0.189-2.04-0.454l2.871-4.08L45.74,25.2l-0.982,0.416c0,0-0.831,0.453-0.831,1.398
		c0,0.189,0.038,0.416,0.113,0.642c0,0,3.589-0.151,5.138-0.151c1.511,0,4.043,0.151,4.043,0.151c0.869-1.058,0.906-2.04,0.906-2.04
		s-1.511-0.189-2.606-0.454L46.081,17.984z"/>
	<path fill="#CC0000" d="M70.334,15.339c0-3.589-2.38-6.271-6.688-6.271c-4.723,0-9.446,3.211-9.446,10.164
		c0,6.045,3.703,8.727,8.463,8.727c4.081,0,6.952-1.813,7.632-2.305l-0.68-1.889c-1.171,0.491-3.022,0.869-4.534,0.869
		c-3.362,0-4.949-1.587-5.138-5.478l9.898-0.076C70.107,18.249,70.334,16.813,70.334,15.339z M64.705,16.511l-4.76,0.415
		c0.189-3.854,1.398-5.176,2.909-5.176c1.851,0,2.04,1.738,2.04,3.022C64.894,15.453,64.818,16.057,64.705,16.511z"/>
	<path fill="#CC0000" d="M79.427,0c-3.513,0.302-7.254,0.567-7.254,0.567s-0.982,0.491-0.982,1.473c0,0.151,0.038,0.378,0.076,0.491
		c0,0,1.549,0.265,2.833,0.491v22.14l-1.625,0.454c0,0-1.058,0.491-1.058,1.474c0,0.151,0.037,0.377,0.113,0.566
		c0,0,3.627-0.151,5.176-0.151c1.473,0,4.496,0.151,4.496,0.151c0.869-1.058,0.983-2.04,0.983-2.04s-1.663-0.189-2.759-0.454V0z"/>
	<path fill="#CC0000" d="M88.04,6.31c1.775,0,3.211-1.436,3.211-3.211C91.251,1.436,90.004,0,88.115,0
		c-1.738,0-3.173,1.398-3.173,3.098S86.113,6.31,88.04,6.31z"/>
	<path fill="#CC0000" d="M91.175,9.181c-3.514,0.302-7.442,0.566-7.442,0.566s-0.983,0.491-0.983,1.474
		c0,0.151,0.038,0.378,0.076,0.491c0,0,1.738,0.265,3.022,0.492v12.958l-1.624,0.454c0,0-1.058,0.491-1.058,1.474
		c0,0.151,0.038,0.377,0.113,0.566c0,0,3.627-0.151,5.176-0.151c1.473,0,4.571,0.151,4.571,0.151c0.869-1.058,0.907-2.04,0.907-2.04
		s-1.662-0.189-2.758-0.454V9.181z"/>
	<path fill="#CC0000" d="M114.146,25.162v-9.407c0-3.325-0.869-6.688-5.327-6.688c-2.834,0-5.403,2.116-6.083,2.569
		c0,0-0.076-1.511-0.076-2.456c-3.25,0.302-7.178,0.566-7.178,0.566s-0.983,0.491-0.983,1.474c0,0.151,0.038,0.378,0.076,0.491
		c0,0,1.738,0.265,3.022,0.492v12.958l-1.625,0.454c0,0-1.058,0.491-1.058,1.474c0,0.151,0.038,0.377,0.113,0.566
		c0,0,3.552-0.151,5.101-0.151c1.398,0,4.383,0.151,4.383,0.151c0.868-1.058,0.906-2.04,0.906-2.04s-1.511-0.189-2.494-0.454v-11.75
		c0.604-0.302,1.549-0.529,2.494-0.529c2.268,0,3.401,0.869,3.401,3.93v8.349l-0.983,0.454c0,0-1.058,0.491-1.058,1.474
		c0,0.151,0.038,0.377,0.113,0.566c0,0,2.985-0.151,4.534-0.151c1.474,0,4.572,0.151,4.572,0.151c0.869-1.058,0.906-2.04,0.906-2.04
		S115.241,25.427,114.146,25.162z"/>
	<path fill="#CC0000" d="M129.623,25.351l-4.685-0.075c-1.625-0.038-1.965-0.416-1.965-1.209c0-0.416,0.151-0.869,0.378-1.209
		c0.68,0.113,1.322,0.151,2.078,0.151c4.08,0,8.312-2.758,8.312-7.443c0-1.511-0.529-2.796-1.209-3.703
		c0.755,0.227,1.964,0.68,3.098,0.68c0.566-0.454,1.246-1.587,1.284-3.136l-7.216,0.34c-1.058-0.454-2.305-0.68-3.741-0.68
		c-4.08,0-8.349,2.758-8.349,7.443c0,2.871,1.586,4.911,4.08,5.855c-1.473,0.869-3.4,2.116-3.4,3.741
		c0,1.36,0.869,2.191,2.116,2.682c-1.473,0.869-4.004,2.456-4.004,4.609c0,2.796,4.004,3.627,7.745,3.627
		c6.536,0,11.864-3.287,11.864-7.519C136.008,27.014,134.496,25.427,129.623,25.351z M125.504,11.674
		c2.267,0,2.909,2.683,2.909,4.798c0,2.72-1.02,3.929-2.569,3.929c-2.267,0-2.909-2.645-2.909-4.76
		C122.935,12.921,123.956,11.674,125.504,11.674z M125.958,34.457c-3.211,0-4.382-1.171-4.382-3.211
		c0-0.907,0.113-1.511,0.454-2.078c0.566,0.113,1.209,0.151,1.851,0.151l3.703,0.038c2.645,0.038,3.249,0.718,3.249,1.852
		C130.832,32.794,129.434,34.457,125.958,34.457z"/>
	<path fill="#CC0000" d="M146.046,9.067c-4.609,0-9.559,3.211-9.559,10.164c0,6.422,4.269,8.727,8.954,8.727
		c4.609,0,9.559-3.136,9.559-10.163C155,11.373,150.73,9.067,146.046,9.067z M145.933,25.125c-2.569,0-3.589-2.985-3.589-7.027
		c0-4.798,1.246-6.196,3.211-6.196c2.569,0,3.589,2.984,3.589,7.027C149.144,23.575,147.896,25.125,145.933,25.125z"/>
	<path fill="#CC0000" d="M12.858,2.632H0v3.427h2.402v21.597h3.532V6.059h3.427v21.597h3.498V16.691
		c3.885,0,7.029-3.144,7.029-7.029S16.744,2.632,12.858,2.632z"/>
</g>
</svg>
